<?xml version="1.0" encoding="UTF-8" standalone="no"?>
<svg
   xmlns:dc="http://purl.org/dc/elements/1.1/"
   xmlns:cc="http://creativecommons.org/ns#"
   xmlns:rdf="http://www.w3.org/1999/02/22-rdf-syntax-ns#"
   xmlns:svg="http://www.w3.org/2000/svg"
   xmlns="http://www.w3.org/2000/svg"
   xmlns:sodipodi="http://sodipodi.sourceforge.net/DTD/sodipodi-0.dtd"
   xmlns:inkscape="http://www.inkscape.org/namespaces/inkscape"
   id="RSSicon"
   viewBox="0 0 8 8"
   width="256"
   height="256"
   version="1.1"
   sodipodi:docname="icon.svg"
   inkscape:version="0.92.5 (2060ec1f9f, 2020-04-08)"
   inkscape:export-filename="/home/guilherme/icon.png"
   inkscape:export-xdpi="96"
   inkscape:export-ydpi="96">
  <metadata
     id="metadata3844">
    <rdf:RDF>
      <cc:Work
         rdf:about="">
        <dc:format>image/svg+xml</dc:format>
        <dc:type
           rdf:resource="http://purl.org/dc/dcmitype/StillImage" />
        <dc:title>RSS feed icon</dc:title>
      </cc:Work>
    </rdf:RDF>
  </metadata>
  <defs
     id="defs3842" />
  <sodipodi:namedview
     pagecolor="#ffffff"
     bordercolor="#666666"
     borderopacity="1"
     objecttolerance="10"
     gridtolerance="10"
     guidetolerance="10"
     inkscape:pageopacity="0"
     inkscape:pageshadow="2"
     inkscape:window-width="1916"
     inkscape:window-height="1036"
     id="namedview3840"
     showgrid="false"
     inkscape:zoom="1.671875"
     inkscape:cx="105.93339"
     inkscape:cy="138.90529"
     inkscape:window-x="0"
     inkscape:window-y="20"
     inkscape:window-maximized="0"
     inkscape:current-layer="RSSicon" />
  <title
     id="title3827">RSS feed icon</title>
  <style
     type="text/css"
     id="style3829">
    .button {stroke: none; fill: orange;}
    .symbol {stroke: none; fill: white;}
  </style>
  <rect
     class="button"
     width="8"
     height="8"
     rx="1.5"
     id="rect3831"
     style="fill:#f6b606;fill-opacity:1;stroke:none"
     x="0"
     y="0" />
  <circle
     class="symbol"
     cx="2"
     cy="6"
     r="1"
     id="circle3833"
     style="fill:#f6b606;fill-opacity:1;stroke:none" />
  <path
     class="symbol"
     d="M 1,4 A 3,3 0 0 1 4,7 H 5 A 4,4 0 0 0 1,3 Z"
     id="path3835"
     style="fill:#262636;fill-opacity:1;stroke:none"
     inkscape:connector-curvature="0" />
  <path
     class="symbol"
     d="M 1,2 A 5,5 0 0 1 6,7 H 7 A 6,6 0 0 0 1,1 Z"
     id="path3837"
     style="fill:#262636;fill-opacity:1;stroke:none"
     inkscape:connector-curvature="0" />
  <path
     style="fill:#262636;fill-opacity:1;stroke:none;stroke-width:0.0050138"
     d="M 1.71899,6.9364012 C 1.61716,6.9245387 1.5225718,6.8968848 1.4265588,6.8509258 1.199492,6.7422253 1.0441028,6.5541741 0.99835537,6.3327161 0.94765749,6.0872952 1.0129702,5.7275773 1.1488825,5.5036623 1.1845651,5.444876 1.2479406,5.3652035 1.3017188,5.3115253 1.4711894,5.1423702 1.6931681,5.0462537 1.9614938,5.0258435 c 0.2695595,-0.020504 0.5265985,0.05944 0.7360685,0.2289333 0.1617785,0.1309031 0.3056799,0.3382264 0.3706044,0.5339417 0.038336,0.1155619 0.044909,0.1563583 0.045246,0.2807727 2.407e-4,0.086348 -0.00152,0.1162526 -0.00886,0.1502944 C 3.0713805,6.373721 3.0034137,6.5034584 2.9033463,6.6038441 2.8225376,6.6849099 2.6363792,6.8026614 2.5170611,6.848183 2.3998845,6.89289 2.2474156,6.9254082 2.1014407,6.9368331 2.0257357,6.9427301 1.7710805,6.9424558 1.71899,6.9364005 Z M 2.447068,6.0517908 c 0.085885,-0.022052 0.1396769,-0.071398 0.1461442,-0.1340606 0.002,-0.01938 5.139e-4,-0.031262 -0.00532,-0.042549 -0.019607,-0.037916 -0.052763,-0.041135 -0.1159524,-0.011255 -0.060762,0.028732 -0.067781,0.027867 -0.1417422,-0.017449 -0.074946,-0.04592 -0.1107149,-0.064205 -0.1462081,-0.074742 -0.056746,-0.016846 -0.099001,-0.00625 -0.1175398,0.029471 -0.00886,0.017079 -0.00929,0.022037 -0.00403,0.047105 0.015361,0.073232 0.1095408,0.1525866 0.2306473,0.194339 0.055841,0.019254 0.1035922,0.022086 0.1540031,0.00914 z M 1.9632652,5.7358294 c 0.00965,-0.010274 0.012381,-0.01943 0.013922,-0.046713 0.00163,-0.028822 -8.297e-4,-0.042149 -0.016324,-0.088449 -0.019975,-0.059694 -0.033253,-0.084847 -0.049331,-0.093452 -0.00876,-0.00469 -0.012001,-0.00376 -0.019607,0.00563 -0.00501,0.00618 -0.00911,0.015294 -0.00911,0.020236 0,0.019378 0.029924,0.1808101 0.03551,0.1915681 0.014634,0.028183 0.026251,0.031072 0.04494,0.011178 z m 0.7939556,-0.0039 c 0.022536,-0.030325 0.00472,-0.1347907 -0.034359,-0.2014745 -0.015056,-0.025691 -0.025811,-0.030888 -0.039076,-0.018883 -0.00816,0.00738 -0.00941,0.013545 -0.00742,0.036471 0.00242,0.02788 0.014205,0.1010457 0.023979,0.1488669 0.010042,0.049135 0.034978,0.064488 0.056877,0.03502 z M 0.85498501,5.4342727 c -0.0140285,-0.00501 -0.0200551,-0.018417 -0.0200551,-0.044601 0,-0.043851 0.0358328,-0.1018442 0.11188791,-0.1810854 l 0.0394937,-0.041148 -0.0130267,-0.039116 C 0.92417916,4.9808704 0.94043416,4.863341 1.0201388,4.7895481 c 0.045175,-0.041824 0.072264,-0.050839 0.153223,-0.05099 0.055688,-1.039e-4 0.073211,0.00196 0.1203313,0.014177 0.052899,0.013715 0.096309,0.031492 0.1132698,0.046386 0.00695,0.0061 0.014099,0.00411 0.055152,-0.01529 0.053769,-0.025416 0.1033638,-0.04026 0.1607734,-0.04812 0.046089,-0.00631 0.058139,-0.0038 0.064718,0.013508 0.00485,0.012769 -0.00596,0.044117 -0.021344,0.061851 -0.032626,0.037618 -0.3678366,0.3238766 -0.562899,0.480698 -0.11321559,0.09102 -0.15390699,0.1188084 -0.1967461,0.1343581 -0.0328082,0.011908 -0.0385646,0.012817 -0.0516311,0.00815 z"
     id="path3857"
     inkscape:connector-curvature="0" />
</svg>
